<?xml version="1.0" encoding="UTF-8" standalone="no"?><!DOCTYPE svg PUBLIC "-//W3C//DTD SVG 1.1//EN" "http://www.w3.org/Graphics/SVG/1.1/DTD/svg11.dtd"><svg width="100%" height="100%" viewBox="0 0 75 60" version="1.1" xmlns="http://www.w3.org/2000/svg" xmlns:xlink="http://www.w3.org/1999/xlink" xml:space="preserve" xmlns:serif="http://www.serif.com/" style="fill-rule:evenodd;clip-rule:evenodd;stroke-linejoin:round;stroke-miterlimit:1.41421;"><rect id="Artboard3" x="0" y="0" width="74.16" height="60" style="fill:none;"/><clipPath id="_clip1"><rect x="0" y="0" width="74.16" height="60"/></clipPath><g clip-path="url(#_clip1)"><path d="M38.997,59.954l5.234,0c-0.074,-1.179 -0.443,-2.285 -1.254,-4.57c-1.032,-2.875 -1.621,-4.792 -1.179,-8.183l1.253,0c-0.295,2.728 -0.147,3.244 0.737,6.34c0.664,2.137 2.728,4.202 3.76,6.413l5.676,0c-1.4,-3.686 0.442,-6.856 1.106,-9.509c0.811,-3.244 1.474,-9.657 -2.433,-12.606l-5.823,-2.433l5.971,0.221c1.474,-8.256 -1.032,-13.859 -2.507,-14.964c-2.064,-1.696 -10.025,-1.917 -14.964,-0.885c-3.834,0.811 -6.709,3.096 -7.593,4.57c2.875,7.593 2.359,10.984 1.916,13.786l7.52,-1.917l-6.561,4.128c-2.359,1.475 -1.696,15.039 9.141,19.609Zm-38.997,0l34.795,0c-7.962,-5.602 -9.657,-14.965 -7.003,-21.231c-4.202,-1.179 -5.161,-3.317 -6.488,-5.676l0.222,10.173l-20.789,12.68l-0.737,4.054Zm26.022,-24.106c2.212,0.664 1.77,-2.359 1.475,-4.349c-0.516,-3.391 -1.917,-5.529 -4.128,-3.981c-2.949,2.064 1.179,7.888 2.653,8.33Zm16.439,6.119c-2.064,0 -4.128,-1.769 -4.939,-2.875c0.295,-0.442 1.032,-0.958 1.475,-0.958c0.884,1.4 2.359,2.432 3.759,2.432c1.622,0 2.507,-0.737 2.949,-1.179c0.369,0.074 0.958,0.59 0.958,0.811c-0.663,0.663 -2.138,1.769 -4.202,1.769Zm-6.855,-13.711c0.884,-0.443 1.548,-0.443 1.327,-1.254c0,-0.589 -0.516,-0.884 -1.18,-0.958c-0.663,0.074 -1.179,0.369 -1.401,0.958c0.222,0.737 0.443,1.77 1.254,1.254Zm1.327,1.179c-1.18,0.221 -3.244,-0.442 -3.391,-2.359c-0.148,-1.622 2.137,-2.58 3.685,-2.433c1.254,0.148 2.359,0.516 2.433,2.286c-0.442,1.916 -1.327,2.211 -2.727,2.506Zm18.355,30.519l18.872,0l-0.737,-4.128l-16.587,-12.458c0.369,3.759 0.148,5.823 -0.368,7.666c-1.032,3.612 -2.285,5.824 -1.18,8.92Zm-13.416,-24.843c-0.295,-0.442 -0.222,-0.884 0.073,-1.106c0.443,0 0.959,-0.073 0.959,-0.516c0,-1.548 -0.516,-3.907 -0.885,-5.455c0,-0.295 0.811,-0.442 1.18,-0.368c0.589,2.432 1.105,5.897 0.884,6.634c-0.221,0.738 -1.622,0.811 -2.211,0.811Zm-20.42,-7.224c2.654,-4.423 6.34,-8.404 12.974,-10.099c5.898,-1.475 11.426,-0.516 16.66,0.442c1.991,-1.622 2.949,-3.833 2.286,-7.077c-16.587,-3.096 -36.933,1.843 -38.555,15.776c2.359,1.769 4.571,2.137 6.635,0.958Zm25.138,-0.59c0.884,-0.074 1.253,-0.442 0.884,-1.327c-0.147,-0.368 -0.663,-0.737 -1.032,-0.663c-0.663,0.147 -1.106,0.59 -1.106,1.106c0,0.663 0.516,0.958 1.254,0.884Zm0.516,1.18c-0.811,0.073 -2.138,-0.443 -2.359,-1.622c-0.295,-1.401 0.958,-2.654 2.432,-2.654c1.032,0 2.728,0.295 2.654,2.212c-0.147,1.916 -1.916,1.99 -2.727,2.064Zm-30.446,-11.058l32.067,-8.772c-4.496,-7.077 -15.554,-10.542 -23.221,-7.593c-7.961,3.022 -10.468,10.099 -8.846,16.365Z" style="fill:#EEE;fill-rule:nonzero;"/></g></svg>