<?xml version="1.0" encoding="UTF-8" standalone="no"?>
<!DOCTYPE svg PUBLIC "-//W3C//DTD SVG 1.1//EN" "http://www.w3.org/Graphics/SVG/1.1/DTD/svg11.dtd">
<svg width="100%" height="100%" viewBox="0 0 469 149" version="1.1" xmlns="http://www.w3.org/2000/svg" xmlns:xlink="http://www.w3.org/1999/xlink" xml:space="preserve" xmlns:serif="http://www.serif.com/" style="fill-rule:evenodd;clip-rule:evenodd;stroke-linejoin:round;stroke-miterlimit:2;">
    <g transform="matrix(1,0,0,1,-169.115,-209.288)">
        <g transform="matrix(0.785652,0,0,0.785652,100.331,75.6013)">
            <g transform="matrix(0.801774,0,0,1.03469,51.4222,-5.90294)">
                <rect x="259.412" y="170.161" width="313.571" height="27.184" style="fill:rgb(34,34,34);"/>
            </g>
            <g transform="matrix(0.801774,0,0,1.03469,51.4222,34.2497)">
                <rect x="259.412" y="170.161" width="313.571" height="27.184" style="fill:rgb(34,34,34);"/>
            </g>
            <g transform="matrix(0.801774,0,0,1.03469,51.4222,74.4023)">
                <rect x="259.412" y="170.161" width="313.571" height="27.184" style="fill:rgb(34,34,34);"/>
            </g>
            <g transform="matrix(0.801774,0,0,1.03469,51.4222,114.555)">
                <rect x="259.412" y="170.161" width="313.571" height="27.184" style="fill:rgb(34,34,34);"/>
            </g>
            <g transform="matrix(0.801774,0,0,1.03469,51.4222,154.708)">
                <rect x="259.412" y="170.161" width="313.571" height="27.184" style="fill:rgb(34,34,34);"/>
            </g>
        </g>
        <g transform="matrix(0.90779,0,0,0.90779,57.3841,48.6935)">
            <g transform="matrix(254,0,0,254,108.572,330.771)">
                <path d="M0.458,-0.534L0.057,-0.323L0.057,-0.225L0.457,-0.023L0.494,-0.107L0.139,-0.276L0.491,-0.455L0.458,-0.534Z" style="fill:rgb(153,153,153);fill-rule:nonzero;"/>
            </g>
            <g transform="matrix(254,0,0,254,513.448,330.771)">
                <path d="M0.092,-0.016L0.494,-0.226L0.494,-0.323L0.095,-0.527L0.055,-0.446L0.409,-0.275L0.054,-0.097L0.092,-0.016Z" style="fill:rgb(153,153,153);fill-rule:nonzero;"/>
            </g>
        </g>
    </g>
</svg>
